{
    "asset" : {
        "generator" : "Khronos glTF Blender I/O v0.9.36",
        "version" : "2.0"
    },
    "scene" : 0,
    "scenes" : [
        {
            "name" : "Scene",
            "nodes" : [
                0,
                1
            ]
        }
    ],
    "nodes" : [
        {
            "name" : "Light",
            "rotation" : [
                0.16907575726509094,
                0.7558803558349609,
                -0.27217137813568115,
                0.570947527885437
            ],
            "translation" : [
                1.5062453746795654,
                3.2238621711730957,
                0.18454599380493164
            ]
        },
        {
            "mesh" : 0,
            "name" : "v2",
            "translation" : [
                0,
                0,
                0.3799999952316284
            ]
        }
    ],
    "materials" : [
        {
            "doubleSided" : true,
            "name" : "light_grey_high_gloss_plastic",
            "pbrMetallicRoughness" : {
                "baseColorTexture" : {
                    "index" : 0,
                    "texCoord" : 0
                },
                "metallicFactor" : 0,
                "roughnessFactor" : 1
            }
        }
    ],
    "meshes" : [
        {
            "name" : "v2",
            "primitives" : [
                {
                    "attributes" : {
                        "POSITION" : 0,
                        "NORMAL" : 1,
                        "TEXCOORD_0" : 2
                    },
                    "indices" : 3,
                    "material" : 0
                }
            ]
        }
    ],
    "textures" : [
        {
            "source" : 0
        }
    ],
    "images" : [
        {
            "bufferView" : 4,
            "mimeType" : "image/png",
            "name" : "v2"
        }
    ],
    "accessors" : [
        {
            "bufferView" : 0,
            "componentType" : 5126,
            "count" : 8848,
            "max" : [
                0.3648929297924042,
                0.24835357069969177,
                -8.88629729161039e-05
            ],
            "min" : [
                -0.3648908734321594,
                -0.2501637935638428,
                -0.7061378955841064
            ],
            "type" : "VEC3"
        },
        {
            "bufferView" : 1,
            "componentType" : 5126,
            "count" : 8848,
            "type" : "VEC3"
        },
        {
            "bufferView" : 2,
            "componentType" : 5126,
            "count" : 8848,
            "type" : "VEC2"
        },
        {
            "bufferView" : 3,
            "componentType" : 5123,
            "count" : 20118,
            "type" : "SCALAR"
        }
    ],
    "bufferViews" : [
        {
            "buffer" : 0,
            "byteLength" : 106176,
            "byteOffset" : 0
        },
        {
            "buffer" : 0,
            "byteLength" : 106176,
            "byteOffset" : 106176
        },
        {
            "buffer" : 0,
            "byteLength" : 70784,
            "byteOffset" : 212352
        },
        {
            "buffer" : 0,
            "byteLength" : 40236,
            "byteOffset" : 283136
        },
        {
            "buffer" : 0,
            "byteLength" : 370411,
            "byteOffset" : 323372
        }
    ],
    "buffers" : [
        {
            "byteLength" : 693784,
            "uri" : "data:application/octet-stream;base64,"
        }
    ]
}
